<?xml version="1.0" encoding="utf-8"?>
<!-- Generator: Adobe Illustrator 18.0.0, SVG Export Plug-In . SVG Version: 6.00 Build 0)  -->
<!DOCTYPE svg PUBLIC "-//W3C//DTD SVG 1.1//EN" "http://www.w3.org/Graphics/SVG/1.1/DTD/svg11.dtd">
<svg version="1.1"
	 id="Layer_1" xmlns:cc="http://creativecommons.org/ns#" xmlns:dc="http://purl.org/dc/elements/1.1/" xmlns:rdf="http://www.w3.org/1999/02/22-rdf-syntax-ns#"
	 xmlns="http://www.w3.org/2000/svg" xmlns:xlink="http://www.w3.org/1999/xlink" x="0px" y="0px" viewBox="-305 397 300 80"
	 enable-background="new -305 397 300 80" xml:space="preserve">
<g transform="matrix(1.25,0,0,-1.25,-5.9169448,86.523103)">
	<g transform="matrix(1.6613986,0,0,1.6613986,-4.1890052,-4.9972634)">
		<g>
			<defs>
				<rect id="SVGID_1_" x="-231.4" y="-218.8" width="326" height="105.9"/>
			</defs>
			<clipPath id="SVGID_2_">
				<use xlink:href="#SVGID_1_"  overflow="visible"/>
			</clipPath>
			<g clip-path="url(#SVGID_2_)">
				<g transform="translate(32.4187,40.9816)">
					<path fill="#003087" d="M-146.9-191.4c-1.7,1.9-4.7,2.7-8.6,2.7h-11.2c-0.8,0-1.5-0.6-1.6-1.4l-4.7-29.7
						c-0.1-0.6,0.4-1.1,1-1.1h6.9l1.7,11l-0.1-0.3c0.1,0.8,0.8,1.4,1.6,1.4h3.3c6.5,0,11.5,2.6,13,10.2c0,0.2,0.1,0.4,0.1,0.7
						C-144.9-195-145.3-193.1-146.9-191.4"/>
				</g>
				<g transform="translate(117.3312,26.8632)">
					<path fill="#009CDE" d="M-146.9-191.4c-0.4-2.8-2.6-2.8-4.6-2.8h-1.2l0.8,5.2c0,0.3,0.3,0.5,0.6,0.5h0.5c1.4,0,2.7,0,3.4-0.8
						C-146.8-189.7-146.7-190.4-146.9-191.4 M-147.8-184.1h-7.8c-0.5,0-1-0.4-1.1-0.9l-3.1-19.9c-0.1-0.4,0.2-0.7,0.6-0.7h4
						c0.4,0,0.7,0.3,0.7,0.6l0.9,5.6c0.1,0.5,0.5,0.9,1.1,0.9h2.5c5.1,0,8.1,2.5,8.8,7.4c0.3,2.1,0,3.8-1,5
						C-143.2-184.8-145.2-184.1-147.8-184.1"/>
				</g>
				<g transform="translate(62.0115,26.8632)">
					<path fill="#003087" d="M-146.9-191.4c-0.4-2.8-2.5-2.8-4.6-2.8h-1.2l0.8,5.2c0,0.3,0.3,0.5,0.6,0.5h0.5c1.4,0,2.7,0,3.4-0.8
						C-146.8-189.7-146.7-190.4-146.9-191.4 M-147.8-184.1h-7.8c-0.5,0-1-0.4-1.1-0.9l-3.1-19.9c-0.1-0.4,0.2-0.7,0.6-0.7h3.7
						c0.5,0,1,0.4,1.1,0.9l0.8,5.4c0.1,0.5,0.5,0.9,1.1,0.9h2.5c5.1,0,8.1,2.5,8.8,7.4c0.3,2.1,0,3.8-1,5
						C-143.2-184.8-145.2-184.1-147.8-184.1"/>
				</g>
				<g transform="translate(79.1228,19.7234)">
					<path fill="#003087" d="M-146.9-191.4c-0.4-2.1-2-3.5-4.2-3.5c-1.1,0-1.9,0.3-2.5,1c-0.5,0.7-0.8,1.6-0.6,2.6
						c0.3,2.1,2,3.6,4.2,3.6c1.1,0,1.9-0.4,2.5-1C-146.9-189.4-146.7-190.4-146.9-191.4 M-141.7-184.2h-3.7c-0.3,0-0.6-0.2-0.6-0.5
						l-0.2-1l-0.3,0.4c-0.8,1.2-2.6,1.6-4.4,1.6c-4.1,0-7.6-3.1-8.3-7.5c-0.4-2.2,0.1-4.3,1.4-5.7c1.1-1.3,2.8-1.9,4.7-1.9
						c3.3,0,5.1,2.1,5.1,2.1l-0.2-1c-0.1-0.4,0.2-0.7,0.6-0.7h3.3c0.5,0,1,0.4,1.1,0.9l2,12.7C-141-184.5-141.3-184.2-141.7-184.2"
						/>
				</g>
				<g transform="translate(134.4426,19.7234)">
					<path fill="#009CDE" d="M-146.9-191.4c-0.4-2.1-2-3.5-4.2-3.5c-1.1,0-1.9,0.3-2.5,1c-0.6,0.7-0.8,1.6-0.6,2.6
						c0.3,2.1,2,3.6,4.2,3.6c1.1,0,1.9-0.4,2.5-1C-146.9-189.4-146.7-190.4-146.9-191.4 M-141.7-184.2h-3.7c-0.3,0-0.6-0.2-0.6-0.5
						l-0.2-1l-0.3,0.4c-0.8,1.2-2.6,1.6-4.4,1.6c-4.1,0-7.6-3.1-8.3-7.5c-0.4-2.2,0.1-4.3,1.4-5.7c1.1-1.3,2.8-1.9,4.7-1.9
						c3.3,0,5.1,2.1,5.1,2.1l-0.2-1c-0.1-0.4,0.2-0.7,0.6-0.7h3.3c0.5,0,1,0.4,1.1,0.9l2,12.7C-141-184.5-141.3-184.2-141.7-184.2"
						/>
				</g>
				<g transform="translate(104.0795,26.9523)">
					<path fill="#003087" d="M-146.9-191.4h-3.7c-0.4,0-0.7-0.2-0.9-0.5l-5.1-7.6l-2.2,7.3c-0.1,0.5-0.6,0.8-1,0.8h-3.7
						c-0.4,0-0.8-0.4-0.6-0.9l4.1-12.1l-3.9-5.5c-0.3-0.4,0-1,0.5-1h3.7c0.4,0,0.7,0.2,0.9,0.5l12.4,17.9
						C-146-192-146.3-191.4-146.9-191.4"/>
				</g>
				<g transform="translate(143.996,33.5807)">
					<path fill="#009CDE" d="M-146.9-191.4l-3.2-20.3c-0.1-0.4,0.2-0.7,0.6-0.7h3.2c0.5,0,1,0.4,1.1,0.9l3.1,19.9
						c0.1,0.4-0.2,0.7-0.6,0.7h-3.6C-146.5-190.8-146.8-191.1-146.9-191.4"/>
				</g>
				<g transform="translate(32.4187,40.9816)">
					<path fill="#003087" d="M-146.9-191.4c-1.7,1.9-4.7,2.7-8.6,2.7h-11.2c-0.8,0-1.5-0.6-1.6-1.4l-4.7-29.7
						c-0.1-0.6,0.4-1.1,1-1.1h6.9l1.7,11l-0.1-0.3c0.1,0.8,0.8,1.4,1.6,1.4h3.3c6.5,0,11.5,2.6,13,10.2c0,0.2,0.1,0.4,0.1,0.7
						C-144.9-195-145.3-193.1-146.9-191.4"/>
				</g>
				<g transform="translate(17.8489,34.4853)">
					<path fill="#003087" d="M-146.9-191.4c0.1,0.5,0.4,0.9,0.8,1.1c0.2,0.1,0.4,0.1,0.6,0.1h8.8c1,0,2-0.1,2.9-0.2
						c0.3,0,0.5-0.1,0.7-0.1c0.2-0.1,0.5-0.1,0.7-0.2c0.1,0,0.2-0.1,0.3-0.1c0.4-0.1,0.8-0.3,1.2-0.5c0.4,2.8,0,4.7-1.5,6.5
						c-1.7,1.9-4.7,2.7-8.6,2.7h-11.2c-0.8,0-1.5-0.6-1.6-1.4l-4.7-29.7c-0.1-0.6,0.4-1.1,1-1.1h6.9l1.7,11
						C-148.7-203.3-146.9-191.4-146.9-191.4z"/>
				</g>
				<g transform="translate(33.9429,34.5226)">
					<path fill="#009CDE" d="M-146.9-191.4L-146.9-191.4c0-0.2-0.1-0.4-0.1-0.7c-1.5-7.6-6.6-10.2-13-10.2h-3.3
						c-0.8,0-1.5-0.6-1.6-1.4l-1.7-10.7l-0.5-3c-0.1-0.5,0.3-1,0.8-1h5.8c0.7,0,1.3,0.5,1.4,1.2l0.1,0.3l1.1,7l0.1,0.4
						c0.1,0.7,0.7,1.2,1.4,1.2h0.9c5.7,0,10.1,2.3,11.4,9c0.5,2.8,0.3,5.1-1.2,6.7C-145.7-192.1-146.2-191.7-146.9-191.4"/>
				</g>
				<g transform="translate(32.3922,35.1407)">
					<path fill="#012169" d="M-146.9-191.4c-0.2,0.1-0.5,0.1-0.7,0.2c-0.2,0.1-0.5,0.1-0.7,0.1c-0.9,0.1-1.9,0.2-2.9,0.2h-8.8
						c-0.2,0-0.4,0-0.6-0.1c-0.4-0.2-0.7-0.6-0.8-1.1l-1.9-11.9l-0.1-0.3c0.1,0.8,0.8,1.4,1.6,1.4h3.3c6.5,0,11.5,2.6,13,10.2
						c0,0.2,0.1,0.4,0.1,0.7c-0.4,0.2-0.8,0.4-1.2,0.5C-146.6-191.5-146.8-191.4-146.9-191.4"/>
				</g>
			</g>
		</g>
	</g>
</g>
</svg>
